# xmcd
#
# Track frame offsets: 
#        182
#        16232
#        31717
#        48930
#        63235
#        77670
#        93645
#        110177
#        124697
#        137625
#        152792
#        165875
#
# Disc length: 2440 seconds
#
# Revision: 1
# Processed by: cddbd v1.4PL0 Copyright (c) Steve Scherf et al.
# Submitted via: ExactAudioCopy v0.90a11
#
DISCID=8d09860c
DTITLE=T.G. Sheppard - All Time Greatest Hits
DYEAR=1900
DGENRE=
TTITLE0=Party Time
TTITLE1=War Is Hell (On The Homefront Too)
TTITLE2=Last Cheater's Waltz
TTITLE3=Do You Wanna Go To Heaven
TTITLE4=Somewhere Down The Line
TTITLE5=Slow Burn
TTITLE6=I Loved 'Em Every One
TTITLE7=Smooth Sailin'
TTITLE8=Faking Love
TTITLE9=Only One You
TTITLE10=I'll Be Coming Back For More
TTITLE11=Finally
EXTD=
EXTT0=
EXTT1=
EXTT2=
EXTT3=
EXTT4=
EXTT5=
EXTT6=
EXTT7=
EXTT8=
EXTT9=
EXTT10=
EXTT11=
PLAYORDER=
